/* XPM */
static char *_cec8cce981b45fee63acd61a41bf930BEl3TA7JZ8L3bESH[] = {
/* columns rows colors chars-per-pixel */
"16 16 2 1 ",
"  c red",
". c green",
/* pixels */
"                ",
" .............. ",
" .............. ",
" .............. ",
" .............. ",
" .............. ",
" .............. ",
" .............. ",
" .............. ",
" .............. ",
" .............. ",
" .............. ",
" .............. ",
" .............. ",
" .............. ",
"                "
};
