/* XPM */
static char *_b18771d94654070ad4e82ca5ef6c1ffBdkW1KF7pUDtaW9P[] = {
/* columns rows colors chars-per-pixel */
"32 32 15 1 ",
"  c black",
". c #2C2C2B",
"X c #3E2723",
"o c #3A3A3A",
"O c #3F3F3E",
"+ c gray30",
"@ c gray33",
"# c #5A5A59",
"$ c #676767",
"% c gray43",
"& c #8F6557",
"* c #FFDA05",
"= c #40C4FF",
"- c #878587",
"; c gray54",
/* pixels */
"%%%%%%#%%%%%%#%#%%%#%%%%#%%%%%%#",
"%%%%%#%%%%%%%#%%#%%#%%%%#%%%%%%#",
"%%%%%#%%%%%%#OOOOO%#%%%%#%%%%%%#",
"#$$$$#$$$$$$OO&&&OO#$$$$#$$$$$$#",
"#########OOOOX&&&XOOOO##########",
";;#;;;;;OO&&&X&&&X&&&OO;;;;#;;;;",
"%%#%%OOOOX&&&X&&&X&&&XOOOO%#%%%%",
"%%##OO&&&X&&&X&&&X&&&X&&&OO#%%%%",
"$$#$..&&&X&&&X&&&X&&&X&&&..#$$$$",
"####OO&&&X&&o@o@o@o&&X&&&OO#####",
";;;;OO&&&X&&@=@=@=@&&X&&&OO;;;#;",
"%%%%..&&&X&&o=@=@=o&&X&&&..%%%#%",
"%%%%OO&&&X&&@=@=@=@&&X&&&OO%%%#%",
"$$$$OO&&&X&&o@o@o@o&&X&&&OO$$$#$",
"####..&&&X&&&X&&&X&&&X&&&..#####",
";;#;OO+    &&X&&&X&&&X&&&OO#;;;;",
"%%#%OO+     &X&&&X&&&X&&&OO#%%%%",
"%%#%..     &&X&&&X&&&X&&&..#%%%%",
"$$#$OO&&&X&&&X&&&X&&&-&&&OO#$$$$",
"####OO&&&X&&&X&&&X&&-*-&&OO#####",
";;;;..&&&X&&&X&&&X&&&-&&&..;;;;#",
"%%%%OO+    &&X&&&X&&&X&&&OO%%%%#",
"%%%%OO+     &X&&&X&&&X&&&OO%%%%#",
"$$$$..     &&X&&&X&&&X&&&..$$$$#",
"####OO&&&X&&&X&&&X&&&X&&&OO#####",
";#;;OO&&&X&&&X&&&X&&&X&&&OO;#;;;",
"%#%%..&&&X&&&X&&&X&&&X&&&..%#%%%",
"%#%%OO&&&X&&&X&&&X&&&X&&&OO%#%%%",
"$#$$OO&&&X&&&X&&&X&&&X&&&OO$#$$$",
"####..&&&X&&&X&&&X&&&X&&&..#####",
";;;;OO&&&X&&&X&&&X&&&X&&&OO;;;;#",
"%%%%OO&&&X&&&X&&&X&&&X&&&OO%%%%#"
};
