/* XPM */
static char *d982e9526caa4871cdbc5be5c5a84af2zVRrAUiyjsu7myCm[] = {
/* columns rows colors chars-per-pixel */
"32 32 6 1 ",
"  c #161845",
". c #1F2363",
"X c #CFC532",
"o c #2C328E",
"O c #3F48CC",
"+ c #797FDB",
/* pixels */
"  OXXXXoOOXXXOXXXXOXXXOOOXXXXO  ",
"   XXXoOOO.XXoOXXO.XXOOOOOXXX   ",
"O  XXXOOO.OoXOOXXOOXO.oOOOXXX  O",
"OO  XOOOOOOXXXXXXXXXXOOOOO.X  Oo",
"OOO   OOO.OOX.OXXOOXOOOOO+   OOO",
"OOoO.  OOOXOXOXXXXOXOXO.O   OOOo",
"oOOOO   oOOX.OXXXXOOXOOO   +OO.O",
"XO+OOO   OO.OOOXXOoO.OO   .Oo.OX",
"XoO.OOO   OOOO.OOOOOOO   OOO.oOX",
"XXOooOOO   .ooOOooOOO   oOOOOOXX",
"XXOoOOO+O   OOOOOO.O   OOOoOOOXX",
"XXX.OOXXXO   OOO.OO.  OXXXOO+XXX",
"XXXOoXXXXXX   OOOO   XXXXXXOOXXX",
"XXXOXXXXXXXX   OO   XXXXXXXXOXXX",
"XXOOXXXXXXXXO      OXXXXXXXX..XX",
"XXOXXXOOoXXXXO    OXXXXOoOXXXOXX",
"XO.XXoOOOOXXX.    OXXXOOOoOXXOoX",
"X.OXOOO+OoXXX      XXXOOOoOOXOOX",
"XXXXXOOOOOOX   OO   XOooOOOXXXXX",
"XOOXOO.OOO.   OOOO   O.+oOOOXOOX",
"XXoXOXoOOO   OOOOOO   OOOOXoXOXX",
"XXOOXOOOo   O.O.OO+O   O.OOXOoXX",
"XOoO.OOO   ..OOO.oOo.   OOoOOOOX",
"OOoOO.O . OOOOOOOOOOOO . OOOoOO.",
"oO..OO   oOOOO.XXOOO.OO   OOOOO.",
"OOO.O   OOOooO.XX.OoOOOO   OOO.O",
"OOOo   OoOO.OOXXXXOooOOOo   OOOO",
"OOO   OOOOOOOoXXXXOOOO.OOO   +O.",
"OO   o+XXXoO.XXXXXXOoOXXXOO   .O",
"o   OXXXXXXo.XXXXXXOOXXXXXXO   o",
"   OXXXXXXXXOXXXXXXOXXXXXXXXO   ",
"  OOXXXXXXXXOOXXXXoOXXXXXXXXoO  "
};
