/* XPM */
static char *fa1953d96b384750dbfe94a970e6731dXQL9VW6ZeCwpwCgZ[] = {
/* columns rows colors chars-per-pixel */
"32 32 5 1 ",
"  c #161845",
". c #1F2363",
"X c #2C328E",
"o c #3F48CC",
"O c #797FDB",
/* pixels */
"  oooooXooooooooXXooo.oooXoXoo  ",
"   oooXooo.ooXoooo.oooooooooo   ",
"o   ooooo.oXXooXooooo.Xooooo   o",
"oo   oooooo.oooo.ooXoooooo.   oX",
"ooo   ooo.ooo.oooooooooooO   ooo",
"ooXo.  ooooo.oX.oooXo.o.o   oooX",
"Xoooo   Xooo.ooo.ooooooo   Ooo.o",
"ooOooo   oo.ooooXoXo.oo   .oX.oo",
"XXo.ooo   oooo.ooooooo   ooo.XoX",
"oooXXooo   .XXooXXooo   Xooooooo",
".ooXoooOo   oooooo.o   oooXooooX",
"ooo.ooo.oo   ooo.oo.  ooXoooOo.o",
"ooOoX.o.o.o   oooo   oo.oooooooo",
"oooooooooXoo   oo   o.ooooXooooo",
"..ooXoXoooXoo      ooooooooo..Xo",
"o.ooooooXooooo    ooooXoXooXoooo",
"oo.ooXoooooXX.    oXoooooXooooXo",
"o.oooooOoXooo      ooooooXooXooo",
"oooooooooooo   oo   ooXXoooooo..",
".ooooo.ooo.   oooo   o.OXooooooo",
"ooXoooXooo   oooooo   oooooXoo.o",
"X.ooooooX   o.o.ooOo   o.ooooXoo",
"ooXo.ooo   ..ooo.XoX.   ooXooooo",
"ooXoo.o . oooooooooooo . oooXoo.",
"Xo..oo   Xoooo.oXooo.oo   ooooo.",
"ooo.o   oooXXo.X..oXoooo   ooo.o",
"oooX   oXoo.oooooooXXoooX   oooo",
"ooo   oooooooXo.oooooo.ooo   Oo.",
"oo   XOoooXo.oXo.XooXoooXoo   .o",
"X   oooooooX..ooooooooo.oooo   X",
"   ooXooXooooo.ooooooooooooXo   ",
"  oooooooooXoo.oooXoO.XoooOoXo  "
};
